<?xml version="1.0" encoding="utf-8"?>
<!-- Generator: Adobe Illustrator 23.0.6, SVG Export Plug-In . SVG Version: 6.00 Build 0)  -->
<svg version="1.1" id="Layer_1" xmlns="http://www.w3.org/2000/svg" xmlns:xlink="http://www.w3.org/1999/xlink" x="0px" y="0px"
	 viewBox="6.5 0 107.5 38.7" style="enable-background:new 0 0 122.5 37.7;" xml:space="preserve">
<style type="text/css">
	.st0{fill:none;}
	.st1{fill-rule:evenodd;clip-rule:evenodd;fill:#010D1B;}
	.st2{fill:#14C59C;}
</style>
<rect x="6.6" y="6.5" class="st0" width="108" height="25"/>
<path class="st1" d="M39.3,11.1h5.4c3.2,0,5.2,2,5.2,5.2c0,3.2-2,5.2-5.2,5.2h-2.5v3.9c0,0.2-0.1,0.4-0.3,0.4h-2.6
	c-0.2,0-0.3-0.1-0.3-0.4V11.4C38.9,11.2,39.1,11.1,39.3,11.1L39.3,11.1z M42.2,18.4h2c1.6,0,2.3-0.7,2.3-2.2c0-1.4-0.8-2.2-2.3-2.2
	h-2V18.4L42.2,18.4z M56.7,25.9c0.1,0,0.2-0.2,0.2-0.4v-2.1c0-0.2-0.1-0.4-0.4-0.3c-0.2,0-0.4,0-0.6,0c-0.8,0-1.2-0.5-1.2-1.5V11.4
	c0-0.2-0.1-0.4-0.3-0.4h-2.4c-0.2,0-0.4,0.1-0.4,0.4V22c0,2.5,1.4,4,3.8,4C55.9,26,56.4,25.9,56.7,25.9L56.7,25.9z M67.3,19.2v2
	c0,0.2-0.1,0.3-0.4,0.3h-5.8v0.3c0,1.1,0.7,1.6,1.8,1.6c1,0,1.9-0.3,2.6-0.7c0.2-0.1,0.3-0.1,0.5,0.1l1.1,1.4
	c0.1,0.2,0.1,0.4-0.1,0.5c-1,0.8-2.4,1.3-4.2,1.3c-2.7,0-4.8-1.4-4.8-4.3v-2.6c0-3.1,2.2-4.4,4.8-4.4C65.2,14.8,67.3,16.1,67.3,19.2
	L67.3,19.2z M64.2,19c0-1.1-0.7-1.6-1.6-1.6c-0.9,0-1.6,0.5-1.6,1.6v0.4h3.2L64.2,19L64.2,19z M71.9,25.8c0.2,0,0.3-0.1,0.3-0.4
	v-7.6c0.3-0.1,0.9-0.2,1.4-0.2c1.1,0,1.7,0.5,1.7,2v5.8c0,0.2,0.1,0.4,0.4,0.4h2.4c0.2,0,0.4-0.1,0.4-0.4v-5.8
	c0-3.1-1.8-4.8-4.9-4.8c-1.5,0-3.1,0.3-4.3,0.8c-0.2,0.1-0.3,0.2-0.3,0.4v9.3c0,0.2,0.1,0.4,0.4,0.4L71.9,25.8L71.9,25.8z
	 M83.8,21.7V18h1.8c0.2,0,0.4-0.1,0.4-0.3v-2c0-0.2-0.1-0.3-0.4-0.3h-1.8l-0.2-2.5c0-0.2-0.1-0.3-0.4-0.3H81c-0.2,0-0.4,0.1-0.4,0.3
	v9.2c0,2.6,1.6,3.9,4,3.9c0.5,0,0.9,0,1.3-0.1c0.2,0,0.3-0.2,0.3-0.4v-2c0-0.2-0.1-0.3-0.4-0.3c-0.2,0-0.5,0-0.7,0
	C84.3,23.2,83.8,22.7,83.8,21.7L83.8,21.7z M90.6,25.7c0.2,0,0.3-0.1,0.3-0.4v-9.9c0-0.2-0.1-0.3-0.3-0.3h-2.4
	c-0.2,0-0.4,0.1-0.4,0.3v9.9c0,0.2,0.1,0.4,0.4,0.4H90.6L90.6,25.7z M91.1,11.9c0-1-0.7-1.7-1.7-1.7c-1,0-1.7,0.7-1.7,1.7
	c0,1,0.7,1.7,1.7,1.7C90.4,13.6,91.1,12.8,91.1,11.9L91.1,11.9z M98.6,13.6c0.2,0,0.3-0.1,0.3-0.3v-1.9c0-0.2-0.1-0.4-0.3-0.4
	c-0.4-0.1-0.8-0.1-1.3-0.1c-2.4,0-4,1.4-4,4.1v10.5c0,0.2,0.1,0.4,0.4,0.4h2.4c0.2,0,0.3-0.1,0.3-0.4V18h1.9c0.2,0,0.3-0.1,0.3-0.3
	v-2c0-0.2-0.1-0.3-0.3-0.3h-1.9V15c0-1,0.4-1.5,1.3-1.5C98.1,13.5,98.4,13.5,98.6,13.6L98.6,13.6z M103,25.7c0.2,0,0.3-0.1,0.3-0.4
	v-9.9c0-0.2-0.1-0.3-0.3-0.3h-2.4c-0.2,0-0.4,0.1-0.4,0.3v9.9c0,0.2,0.1,0.4,0.4,0.4H103L103,25.7z M103.5,11.9c0-1-0.7-1.7-1.7-1.7
	c-1,0-1.7,0.7-1.7,1.7c0,1,0.7,1.7,1.7,1.7C102.8,13.6,103.5,12.8,103.5,11.9L103.5,11.9z M113.8,24.9c0.2-0.1,0.2-0.3,0.1-0.5
	l-1.1-1.6c-0.1-0.2-0.3-0.2-0.5-0.1c-0.6,0.4-1.3,0.6-2,0.6c-1.1,0-1.8-0.6-1.8-1.7v-2.3c0-1.1,0.7-1.7,1.8-1.7
	c0.6,0,1.2,0.2,1.7,0.5c0.2,0.1,0.4,0.1,0.5-0.1l1.1-1.6c0.1-0.2,0.1-0.4-0.1-0.5c-1.1-0.6-2.2-1-3.4-1c-3.1,0-4.8,1.7-4.8,4.4v2.3
	c0,2.8,1.8,4.5,4.9,4.5C111.6,26,112.8,25.6,113.8,24.9L113.8,24.9z"/>
<rect x="6.6" y="6.5" class="st0" width="108" height="25"/>
<path class="st2" d="M12.7,21.3c0.6,0,1,0.5,1,1s-0.5,1-1,1h-0.2c-1.7,0-3.3-0.7-4.5-1.8c-1.9-1.9-1.9-5.2,0-7.1l5.8-5.8
	c1.3-1.3,3.1-2,4.9-2H27c2.6,0,4.7,2.1,4.7,4.6v8.1c0,1.8-0.7,3.6-2,4.9L23.7,30c-2,1.9-5.2,1.9-7.1,0c-1.2-1.2-1.8-2.8-1.8-4.4v-8
	c0-3.2,2.6-5.7,5.8-5.7s5.8,2.6,5.8,5.7c0,3.2-2.6,5.7-5.8,5.7h-1.7c-0.6,0-1-0.5-1-1s0.5-1,1-1h1.7c2,0,3.7-1.7,3.7-3.7
	c0-2-1.7-3.7-3.7-3.7s-3.7,1.7-3.7,3.7v8c0,1.1,0.5,2.2,1.2,3c1.1,1.1,3,1.1,4.2,0l5.8-5.8c0.9-0.9,1.4-2.2,1.4-3.5v-8.1
	c0-1.4-1.2-2.6-2.6-2.6h-8.1c-1.3,0-2.5,0.5-3.4,1.4l-5.8,5.8c-1.2,1.2-1.2,3.1,0,4.2c0.8,0.8,1.9,1.2,3,1.2L12.7,21.3L12.7,21.3z"
	/>
</svg>
